%TF.GenerationSoftware,KiCad,Pcbnew,9.0.2*%
%TF.CreationDate,2025-06-28T18:53:08+03:00*%
%TF.ProjectId,esp-remote-board,6573702d-7265-46d6-9f74-652d626f6172,rev?*%
%TF.SameCoordinates,Original*%
%TF.FileFunction,Soldermask,Top*%
%TF.FilePolarity,Negative*%
%FSLAX46Y46*%
G04 Gerber Fmt 4.6, Leading zero omitted, Abs format (unit mm)*
G04 Created by KiCad (PCBNEW 9.0.2) date 2025-06-28 18:53:08*
%MOMM*%
%LPD*%
G01*
G04 APERTURE LIST*
G04 Aperture macros list*
%AMRoundRect*
0 Rectangle with rounded corners*
0 $1 Rounding radius*
0 $2 $3 $4 $5 $6 $7 $8 $9 X,Y pos of 4 corners*
0 Add a 4 corners polygon primitive as box body*
4,1,4,$2,$3,$4,$5,$6,$7,$8,$9,$2,$3,0*
0 Add four circle primitives for the rounded corners*
1,1,$1+$1,$2,$3*
1,1,$1+$1,$4,$5*
1,1,$1+$1,$6,$7*
1,1,$1+$1,$8,$9*
0 Add four rect primitives between the rounded corners*
20,1,$1+$1,$2,$3,$4,$5,0*
20,1,$1+$1,$4,$5,$6,$7,0*
20,1,$1+$1,$6,$7,$8,$9,0*
20,1,$1+$1,$8,$9,$2,$3,0*%
%AMRotRect*
0 Rectangle, with rotation*
0 The origin of the aperture is its center*
0 $1 length*
0 $2 width*
0 $3 Rotation angle, in degrees counterclockwise*
0 Add horizontal line*
21,1,$1,$2,0,0,$3*%
G04 Aperture macros list end*
%ADD10RoundRect,0.135000X-0.135000X-0.185000X0.135000X-0.185000X0.135000X0.185000X-0.135000X0.185000X0*%
%ADD11RotRect,1.800000X1.800000X355.000000*%
%ADD12C,1.800000*%
%ADD13C,2.700000*%
%ADD14R,1.700000X1.700000*%
%ADD15C,1.700000*%
%ADD16R,1.050000X0.650000*%
%ADD17RotRect,1.800000X1.800000X5.000000*%
%ADD18RoundRect,0.135000X-0.185000X0.135000X-0.185000X-0.135000X0.185000X-0.135000X0.185000X0.135000X0*%
%ADD19RotRect,1.800000X1.800000X20.000000*%
%ADD20RoundRect,0.248400X0.651600X0.651600X-0.651600X0.651600X-0.651600X-0.651600X0.651600X-0.651600X0*%
%ADD21RotRect,1.800000X1.800000X340.000000*%
%ADD22RoundRect,0.100000X0.130000X0.100000X-0.130000X0.100000X-0.130000X-0.100000X0.130000X-0.100000X0*%
%ADD23RoundRect,0.150000X-0.587500X-0.150000X0.587500X-0.150000X0.587500X0.150000X-0.587500X0.150000X0*%
G04 APERTURE END LIST*
D10*
%TO.C,R20*%
X148846270Y-75260000D03*
X149866270Y-75260000D03*
%TD*%
D11*
%TO.C,D6*%
X150249770Y-70538624D03*
D12*
X152780106Y-70760000D03*
%TD*%
D13*
%TO.C,REF\u002A\u002A*%
X142080000Y-78722730D03*
%TD*%
D14*
%TO.C,J2*%
X164390000Y-82782730D03*
D15*
X164390000Y-85322730D03*
X164390000Y-87862730D03*
X164390000Y-90402730D03*
X164390000Y-92942730D03*
X164390000Y-95482730D03*
X164390000Y-98022730D03*
X164390000Y-100562730D03*
X164390000Y-103102730D03*
X164390000Y-105642730D03*
X164390000Y-108182730D03*
X164390000Y-110722730D03*
X164390000Y-113262730D03*
X164390000Y-115802730D03*
X164390000Y-118342730D03*
%TD*%
D10*
%TO.C,R15*%
X157101270Y-75260000D03*
X158121270Y-75260000D03*
%TD*%
D13*
%TO.C,REF\u002A\u002A*%
X163790000Y-122342730D03*
%TD*%
D16*
%TO.C,SW3*%
X140505256Y-126832230D03*
X144655256Y-126832230D03*
X140505256Y-128982230D03*
X144655256Y-128982230D03*
%TD*%
D10*
%TO.C,R21*%
X152973770Y-75260000D03*
X153993770Y-75260000D03*
%TD*%
D17*
%TO.C,D5*%
X144779770Y-70760000D03*
D12*
X147310106Y-70538624D03*
%TD*%
D18*
%TO.C,R17*%
X158052564Y-127397230D03*
X158052564Y-128417230D03*
%TD*%
D13*
%TO.C,REF\u002A\u002A*%
X163790000Y-78722730D03*
%TD*%
D19*
%TO.C,D4*%
X139309770Y-72128731D03*
D12*
X141696589Y-71260000D03*
%TD*%
D20*
%TO.C,U2*%
X166289770Y-72760000D03*
D12*
X163749770Y-72760000D03*
X161209770Y-72760000D03*
%TD*%
D14*
%TO.C,J1*%
X141530000Y-82782730D03*
D15*
X141530000Y-85322730D03*
X141530000Y-87862730D03*
X141530000Y-90402730D03*
X141530000Y-92942730D03*
X141530000Y-95482730D03*
X141530000Y-98022730D03*
X141530000Y-100562730D03*
X141530000Y-103102730D03*
X141530000Y-105642730D03*
X141530000Y-108182730D03*
X141530000Y-110722730D03*
X141530000Y-113262730D03*
X141530000Y-115802730D03*
X141530000Y-118342730D03*
%TD*%
D21*
%TO.C,D7*%
X155719770Y-71260000D03*
D12*
X158106589Y-72128731D03*
%TD*%
D22*
%TO.C,D3*%
X159007270Y-68760000D03*
X158367270Y-68760000D03*
%TD*%
D13*
%TO.C,REF\u002A\u002A*%
X142080000Y-122342730D03*
%TD*%
D16*
%TO.C,SW4*%
X161215000Y-126832230D03*
X165365000Y-126832230D03*
X161215000Y-128982230D03*
X165365000Y-128982230D03*
%TD*%
D23*
%TO.C,Q1*%
X152592500Y-127044730D03*
X152592500Y-128944730D03*
X154467500Y-127994730D03*
%TD*%
D10*
%TO.C,R19*%
X144718770Y-75260000D03*
X145738770Y-75260000D03*
%TD*%
D18*
%TO.C,R16*%
X147817692Y-127397230D03*
X147817692Y-128417230D03*
%TD*%
D10*
%TO.C,R18*%
X140591270Y-75260000D03*
X141611270Y-75260000D03*
%TD*%
M02*
