%TF.GenerationSoftware,KiCad,Pcbnew,9.0.2*%
%TF.CreationDate,2025-06-28T18:53:08+03:00*%
%TF.ProjectId,esp-remote-board,6573702d-7265-46d6-9f74-652d626f6172,rev?*%
%TF.SameCoordinates,Original*%
%TF.FileFunction,Copper,L2,Bot*%
%TF.FilePolarity,Positive*%
%FSLAX46Y46*%
G04 Gerber Fmt 4.6, Leading zero omitted, Abs format (unit mm)*
G04 Created by KiCad (PCBNEW 9.0.2) date 2025-06-28 18:53:08*
%MOMM*%
%LPD*%
G01*
G04 APERTURE LIST*
G04 Aperture macros list*
%AMRoundRect*
0 Rectangle with rounded corners*
0 $1 Rounding radius*
0 $2 $3 $4 $5 $6 $7 $8 $9 X,Y pos of 4 corners*
0 Add a 4 corners polygon primitive as box body*
4,1,4,$2,$3,$4,$5,$6,$7,$8,$9,$2,$3,0*
0 Add four circle primitives for the rounded corners*
1,1,$1+$1,$2,$3*
1,1,$1+$1,$4,$5*
1,1,$1+$1,$6,$7*
1,1,$1+$1,$8,$9*
0 Add four rect primitives between the rounded corners*
20,1,$1+$1,$2,$3,$4,$5,0*
20,1,$1+$1,$4,$5,$6,$7,0*
20,1,$1+$1,$6,$7,$8,$9,0*
20,1,$1+$1,$8,$9,$2,$3,0*%
%AMRotRect*
0 Rectangle, with rotation*
0 The origin of the aperture is its center*
0 $1 length*
0 $2 width*
0 $3 Rotation angle, in degrees counterclockwise*
0 Add horizontal line*
21,1,$1,$2,0,0,$3*%
G04 Aperture macros list end*
%TA.AperFunction,ComponentPad*%
%ADD10RotRect,1.800000X1.800000X355.000000*%
%TD*%
%TA.AperFunction,ComponentPad*%
%ADD11C,1.800000*%
%TD*%
%TA.AperFunction,ComponentPad*%
%ADD12R,1.700000X1.700000*%
%TD*%
%TA.AperFunction,ComponentPad*%
%ADD13C,1.700000*%
%TD*%
%TA.AperFunction,ComponentPad*%
%ADD14RotRect,1.800000X1.800000X5.000000*%
%TD*%
%TA.AperFunction,ComponentPad*%
%ADD15RotRect,1.800000X1.800000X20.000000*%
%TD*%
%TA.AperFunction,ComponentPad*%
%ADD16RoundRect,0.248400X0.651600X0.651600X-0.651600X0.651600X-0.651600X-0.651600X0.651600X-0.651600X0*%
%TD*%
%TA.AperFunction,ComponentPad*%
%ADD17RotRect,1.800000X1.800000X340.000000*%
%TD*%
G04 APERTURE END LIST*
D10*
%TO.P,D6,1,K*%
%TO.N,Net-(D6-K)*%
X150249770Y-70538624D03*
D11*
%TO.P,D6,2,A*%
%TO.N,/VDD3V3*%
X152780106Y-70760000D03*
%TD*%
D12*
%TO.P,J2,1,Pin_1*%
%TO.N,unconnected-(J2-Pin_1-Pad1)*%
X164390000Y-82782730D03*
D13*
%TO.P,J2,2,Pin_2*%
%TO.N,/D1*%
X164390000Y-85322730D03*
%TO.P,J2,3,Pin_3*%
%TO.N,/D2*%
X164390000Y-87862730D03*
%TO.P,J2,4,Pin_4*%
%TO.N,unconnected-(J2-Pin_4-Pad4)*%
X164390000Y-90402730D03*
%TO.P,J2,5,Pin_5*%
%TO.N,unconnected-(J2-Pin_5-Pad5)*%
X164390000Y-92942730D03*
%TO.P,J2,6,Pin_6*%
%TO.N,/VDD3V3*%
X164390000Y-95482730D03*
%TO.P,J2,7,Pin_7*%
%TO.N,GND*%
X164390000Y-98022730D03*
%TO.P,J2,8,Pin_8*%
%TO.N,/D5*%
X164390000Y-100562730D03*
%TO.P,J2,9,Pin_9*%
%TO.N,/D6*%
X164390000Y-103102730D03*
%TO.P,J2,10,Pin_10*%
%TO.N,unconnected-(J2-Pin_10-Pad10)*%
X164390000Y-105642730D03*
%TO.P,J2,11,Pin_11*%
%TO.N,unconnected-(J2-Pin_11-Pad11)*%
X164390000Y-108182730D03*
%TO.P,J2,12,Pin_12*%
%TO.N,unconnected-(J2-Pin_12-Pad12)*%
X164390000Y-110722730D03*
%TO.P,J2,13,Pin_13*%
%TO.N,unconnected-(J2-Pin_13-Pad13)*%
X164390000Y-113262730D03*
%TO.P,J2,14,Pin_14*%
%TO.N,GND*%
X164390000Y-115802730D03*
%TO.P,J2,15,Pin_15*%
%TO.N,/VDD3V3*%
X164390000Y-118342730D03*
%TD*%
D14*
%TO.P,D5,1,K*%
%TO.N,Net-(D5-K)*%
X144779770Y-70760000D03*
D11*
%TO.P,D5,2,A*%
%TO.N,/VDD3V3*%
X147310106Y-70538624D03*
%TD*%
D15*
%TO.P,D4,1,K*%
%TO.N,Net-(D4-K)*%
X139309770Y-72128731D03*
D11*
%TO.P,D4,2,A*%
%TO.N,/VDD3V3*%
X141696589Y-71260000D03*
%TD*%
D16*
%TO.P,U2,1,OUT*%
%TO.N,/D1*%
X166289770Y-72760000D03*
D11*
%TO.P,U2,2,GND*%
%TO.N,GND*%
X163749770Y-72760000D03*
%TO.P,U2,3,Vs*%
%TO.N,/VDD3V3*%
X161209770Y-72760000D03*
%TD*%
D12*
%TO.P,J1,1,Pin_1*%
%TO.N,unconnected-(J1-Pin_1-Pad1)*%
X141530000Y-82782730D03*
D13*
%TO.P,J1,2,Pin_2*%
%TO.N,unconnected-(J1-Pin_2-Pad2)*%
X141530000Y-85322730D03*
%TO.P,J1,3,Pin_3*%
%TO.N,unconnected-(J1-Pin_3-Pad3)*%
X141530000Y-87862730D03*
%TO.P,J1,4,Pin_4*%
%TO.N,unconnected-(J1-Pin_4-Pad4)*%
X141530000Y-90402730D03*
%TO.P,J1,5,Pin_5*%
%TO.N,unconnected-(J1-Pin_5-Pad5)*%
X141530000Y-92942730D03*
%TO.P,J1,6,Pin_6*%
%TO.N,unconnected-(J1-Pin_6-Pad6)*%
X141530000Y-95482730D03*
%TO.P,J1,7,Pin_7*%
%TO.N,unconnected-(J1-Pin_7-Pad7)*%
X141530000Y-98022730D03*
%TO.P,J1,8,Pin_8*%
%TO.N,unconnected-(J1-Pin_8-Pad8)*%
X141530000Y-100562730D03*
%TO.P,J1,9,Pin_9*%
%TO.N,unconnected-(J1-Pin_9-Pad9)*%
X141530000Y-103102730D03*
%TO.P,J1,10,Pin_10*%
%TO.N,GND*%
X141530000Y-105642730D03*
%TO.P,J1,11,Pin_11*%
%TO.N,/VDD3V3*%
X141530000Y-108182730D03*
%TO.P,J1,12,Pin_12*%
%TO.N,unconnected-(J1-Pin_12-Pad12)*%
X141530000Y-110722730D03*
%TO.P,J1,13,Pin_13*%
%TO.N,unconnected-(J1-Pin_13-Pad13)*%
X141530000Y-113262730D03*
%TO.P,J1,14,Pin_14*%
%TO.N,GND*%
X141530000Y-115802730D03*
%TO.P,J1,15,Pin_15*%
%TO.N,unconnected-(J1-Pin_15-Pad15)*%
X141530000Y-118342730D03*
%TD*%
D17*
%TO.P,D7,1,K*%
%TO.N,Net-(D7-K)*%
X155719770Y-71260000D03*
D11*
%TO.P,D7,2,A*%
%TO.N,/VDD3V3*%
X158106589Y-72128731D03*
%TD*%
M02*
