%TF.GenerationSoftware,KiCad,Pcbnew,9.0.2*%
%TF.CreationDate,2025-06-28T18:53:09+03:00*%
%TF.ProjectId,esp-remote-board,6573702d-7265-46d6-9f74-652d626f6172,rev?*%
%TF.SameCoordinates,Original*%
%TF.FileFunction,Soldermask,Bot*%
%TF.FilePolarity,Negative*%
%FSLAX46Y46*%
G04 Gerber Fmt 4.6, Leading zero omitted, Abs format (unit mm)*
G04 Created by KiCad (PCBNEW 9.0.2) date 2025-06-28 18:53:09*
%MOMM*%
%LPD*%
G01*
G04 APERTURE LIST*
G04 Aperture macros list*
%AMRoundRect*
0 Rectangle with rounded corners*
0 $1 Rounding radius*
0 $2 $3 $4 $5 $6 $7 $8 $9 X,Y pos of 4 corners*
0 Add a 4 corners polygon primitive as box body*
4,1,4,$2,$3,$4,$5,$6,$7,$8,$9,$2,$3,0*
0 Add four circle primitives for the rounded corners*
1,1,$1+$1,$2,$3*
1,1,$1+$1,$4,$5*
1,1,$1+$1,$6,$7*
1,1,$1+$1,$8,$9*
0 Add four rect primitives between the rounded corners*
20,1,$1+$1,$2,$3,$4,$5,0*
20,1,$1+$1,$4,$5,$6,$7,0*
20,1,$1+$1,$6,$7,$8,$9,0*
20,1,$1+$1,$8,$9,$2,$3,0*%
%AMRotRect*
0 Rectangle, with rotation*
0 The origin of the aperture is its center*
0 $1 length*
0 $2 width*
0 $3 Rotation angle, in degrees counterclockwise*
0 Add horizontal line*
21,1,$1,$2,0,0,$3*%
G04 Aperture macros list end*
%ADD10RotRect,1.800000X1.800000X355.000000*%
%ADD11C,1.800000*%
%ADD12C,2.700000*%
%ADD13R,1.700000X1.700000*%
%ADD14C,1.700000*%
%ADD15RotRect,1.800000X1.800000X5.000000*%
%ADD16RotRect,1.800000X1.800000X20.000000*%
%ADD17RoundRect,0.248400X0.651600X0.651600X-0.651600X0.651600X-0.651600X-0.651600X0.651600X-0.651600X0*%
%ADD18RotRect,1.800000X1.800000X340.000000*%
G04 APERTURE END LIST*
D10*
%TO.C,D6*%
X150249770Y-70538624D03*
D11*
X152780106Y-70760000D03*
%TD*%
D12*
%TO.C,REF\u002A\u002A*%
X142080000Y-78722730D03*
%TD*%
D13*
%TO.C,J2*%
X164390000Y-82782730D03*
D14*
X164390000Y-85322730D03*
X164390000Y-87862730D03*
X164390000Y-90402730D03*
X164390000Y-92942730D03*
X164390000Y-95482730D03*
X164390000Y-98022730D03*
X164390000Y-100562730D03*
X164390000Y-103102730D03*
X164390000Y-105642730D03*
X164390000Y-108182730D03*
X164390000Y-110722730D03*
X164390000Y-113262730D03*
X164390000Y-115802730D03*
X164390000Y-118342730D03*
%TD*%
D12*
%TO.C,REF\u002A\u002A*%
X163790000Y-122342730D03*
%TD*%
D15*
%TO.C,D5*%
X144779770Y-70760000D03*
D11*
X147310106Y-70538624D03*
%TD*%
D12*
%TO.C,REF\u002A\u002A*%
X163790000Y-78722730D03*
%TD*%
D16*
%TO.C,D4*%
X139309770Y-72128731D03*
D11*
X141696589Y-71260000D03*
%TD*%
D17*
%TO.C,U2*%
X166289770Y-72760000D03*
D11*
X163749770Y-72760000D03*
X161209770Y-72760000D03*
%TD*%
D13*
%TO.C,J1*%
X141530000Y-82782730D03*
D14*
X141530000Y-85322730D03*
X141530000Y-87862730D03*
X141530000Y-90402730D03*
X141530000Y-92942730D03*
X141530000Y-95482730D03*
X141530000Y-98022730D03*
X141530000Y-100562730D03*
X141530000Y-103102730D03*
X141530000Y-105642730D03*
X141530000Y-108182730D03*
X141530000Y-110722730D03*
X141530000Y-113262730D03*
X141530000Y-115802730D03*
X141530000Y-118342730D03*
%TD*%
D18*
%TO.C,D7*%
X155719770Y-71260000D03*
D11*
X158106589Y-72128731D03*
%TD*%
D12*
%TO.C,REF\u002A\u002A*%
X142080000Y-122342730D03*
%TD*%
M02*
