%TF.GenerationSoftware,KiCad,Pcbnew,9.0.2*%
%TF.CreationDate,2025-06-28T18:53:08+03:00*%
%TF.ProjectId,esp-remote-board,6573702d-7265-46d6-9f74-652d626f6172,rev?*%
%TF.SameCoordinates,Original*%
%TF.FileFunction,Copper,L1,Top*%
%TF.FilePolarity,Positive*%
%FSLAX46Y46*%
G04 Gerber Fmt 4.6, Leading zero omitted, Abs format (unit mm)*
G04 Created by KiCad (PCBNEW 9.0.2) date 2025-06-28 18:53:08*
%MOMM*%
%LPD*%
G01*
G04 APERTURE LIST*
G04 Aperture macros list*
%AMRoundRect*
0 Rectangle with rounded corners*
0 $1 Rounding radius*
0 $2 $3 $4 $5 $6 $7 $8 $9 X,Y pos of 4 corners*
0 Add a 4 corners polygon primitive as box body*
4,1,4,$2,$3,$4,$5,$6,$7,$8,$9,$2,$3,0*
0 Add four circle primitives for the rounded corners*
1,1,$1+$1,$2,$3*
1,1,$1+$1,$4,$5*
1,1,$1+$1,$6,$7*
1,1,$1+$1,$8,$9*
0 Add four rect primitives between the rounded corners*
20,1,$1+$1,$2,$3,$4,$5,0*
20,1,$1+$1,$4,$5,$6,$7,0*
20,1,$1+$1,$6,$7,$8,$9,0*
20,1,$1+$1,$8,$9,$2,$3,0*%
%AMRotRect*
0 Rectangle, with rotation*
0 The origin of the aperture is its center*
0 $1 length*
0 $2 width*
0 $3 Rotation angle, in degrees counterclockwise*
0 Add horizontal line*
21,1,$1,$2,0,0,$3*%
G04 Aperture macros list end*
%TA.AperFunction,SMDPad,CuDef*%
%ADD10RoundRect,0.135000X-0.135000X-0.185000X0.135000X-0.185000X0.135000X0.185000X-0.135000X0.185000X0*%
%TD*%
%TA.AperFunction,ComponentPad*%
%ADD11RotRect,1.800000X1.800000X355.000000*%
%TD*%
%TA.AperFunction,ComponentPad*%
%ADD12C,1.800000*%
%TD*%
%TA.AperFunction,ComponentPad*%
%ADD13R,1.700000X1.700000*%
%TD*%
%TA.AperFunction,ComponentPad*%
%ADD14C,1.700000*%
%TD*%
%TA.AperFunction,SMDPad,CuDef*%
%ADD15R,1.050000X0.650000*%
%TD*%
%TA.AperFunction,ComponentPad*%
%ADD16RotRect,1.800000X1.800000X5.000000*%
%TD*%
%TA.AperFunction,SMDPad,CuDef*%
%ADD17RoundRect,0.135000X-0.185000X0.135000X-0.185000X-0.135000X0.185000X-0.135000X0.185000X0.135000X0*%
%TD*%
%TA.AperFunction,ComponentPad*%
%ADD18RotRect,1.800000X1.800000X20.000000*%
%TD*%
%TA.AperFunction,ComponentPad*%
%ADD19RoundRect,0.248400X0.651600X0.651600X-0.651600X0.651600X-0.651600X-0.651600X0.651600X-0.651600X0*%
%TD*%
%TA.AperFunction,ComponentPad*%
%ADD20RotRect,1.800000X1.800000X340.000000*%
%TD*%
%TA.AperFunction,SMDPad,CuDef*%
%ADD21RoundRect,0.100000X0.130000X0.100000X-0.130000X0.100000X-0.130000X-0.100000X0.130000X-0.100000X0*%
%TD*%
%TA.AperFunction,SMDPad,CuDef*%
%ADD22RoundRect,0.150000X-0.587500X-0.150000X0.587500X-0.150000X0.587500X0.150000X-0.587500X0.150000X0*%
%TD*%
%TA.AperFunction,Conductor*%
%ADD23C,0.200000*%
%TD*%
G04 APERTURE END LIST*
D10*
%TO.P,R20,1*%
%TO.N,Net-(D6-K)*%
X148846270Y-75260000D03*
%TO.P,R20,2*%
%TO.N,Net-(Q1-C)*%
X149866270Y-75260000D03*
%TD*%
D11*
%TO.P,D6,1,K*%
%TO.N,Net-(D6-K)*%
X150249770Y-70538624D03*
D12*
%TO.P,D6,2,A*%
%TO.N,/VDD3V3*%
X152780106Y-70760000D03*
%TD*%
D13*
%TO.P,J2,1,Pin_1*%
%TO.N,unconnected-(J2-Pin_1-Pad1)*%
X164390000Y-82782730D03*
D14*
%TO.P,J2,2,Pin_2*%
%TO.N,/D1*%
X164390000Y-85322730D03*
%TO.P,J2,3,Pin_3*%
%TO.N,/D2*%
X164390000Y-87862730D03*
%TO.P,J2,4,Pin_4*%
%TO.N,unconnected-(J2-Pin_4-Pad4)*%
X164390000Y-90402730D03*
%TO.P,J2,5,Pin_5*%
%TO.N,unconnected-(J2-Pin_5-Pad5)*%
X164390000Y-92942730D03*
%TO.P,J2,6,Pin_6*%
%TO.N,/VDD3V3*%
X164390000Y-95482730D03*
%TO.P,J2,7,Pin_7*%
%TO.N,GND*%
X164390000Y-98022730D03*
%TO.P,J2,8,Pin_8*%
%TO.N,/D5*%
X164390000Y-100562730D03*
%TO.P,J2,9,Pin_9*%
%TO.N,/D6*%
X164390000Y-103102730D03*
%TO.P,J2,10,Pin_10*%
%TO.N,unconnected-(J2-Pin_10-Pad10)*%
X164390000Y-105642730D03*
%TO.P,J2,11,Pin_11*%
%TO.N,unconnected-(J2-Pin_11-Pad11)*%
X164390000Y-108182730D03*
%TO.P,J2,12,Pin_12*%
%TO.N,unconnected-(J2-Pin_12-Pad12)*%
X164390000Y-110722730D03*
%TO.P,J2,13,Pin_13*%
%TO.N,unconnected-(J2-Pin_13-Pad13)*%
X164390000Y-113262730D03*
%TO.P,J2,14,Pin_14*%
%TO.N,GND*%
X164390000Y-115802730D03*
%TO.P,J2,15,Pin_15*%
%TO.N,/VDD3V3*%
X164390000Y-118342730D03*
%TD*%
D10*
%TO.P,R15,1*%
%TO.N,Net-(D3-K)*%
X157101270Y-75260000D03*
%TO.P,R15,2*%
%TO.N,/D1*%
X158121270Y-75260000D03*
%TD*%
D15*
%TO.P,SW3,1,1*%
%TO.N,Net-(R16-Pad2)*%
X140505256Y-126832230D03*
X144655256Y-126832230D03*
%TO.P,SW3,2,2*%
%TO.N,GND*%
X140505256Y-128982230D03*
X144655256Y-128982230D03*
%TD*%
D10*
%TO.P,R21,1*%
%TO.N,Net-(D7-K)*%
X152973770Y-75260000D03*
%TO.P,R21,2*%
%TO.N,Net-(Q1-C)*%
X153993770Y-75260000D03*
%TD*%
D16*
%TO.P,D5,1,K*%
%TO.N,Net-(D5-K)*%
X144779770Y-70760000D03*
D12*
%TO.P,D5,2,A*%
%TO.N,/VDD3V3*%
X147310106Y-70538624D03*
%TD*%
D17*
%TO.P,R17,1*%
%TO.N,/D6*%
X158052564Y-127397230D03*
%TO.P,R17,2*%
%TO.N,Net-(R17-Pad2)*%
X158052564Y-128417230D03*
%TD*%
D18*
%TO.P,D4,1,K*%
%TO.N,Net-(D4-K)*%
X139309770Y-72128731D03*
D12*
%TO.P,D4,2,A*%
%TO.N,/VDD3V3*%
X141696589Y-71260000D03*
%TD*%
D19*
%TO.P,U2,1,OUT*%
%TO.N,/D1*%
X166289770Y-72760000D03*
D12*
%TO.P,U2,2,GND*%
%TO.N,GND*%
X163749770Y-72760000D03*
%TO.P,U2,3,Vs*%
%TO.N,/VDD3V3*%
X161209770Y-72760000D03*
%TD*%
D13*
%TO.P,J1,1,Pin_1*%
%TO.N,unconnected-(J1-Pin_1-Pad1)*%
X141530000Y-82782730D03*
D14*
%TO.P,J1,2,Pin_2*%
%TO.N,unconnected-(J1-Pin_2-Pad2)*%
X141530000Y-85322730D03*
%TO.P,J1,3,Pin_3*%
%TO.N,unconnected-(J1-Pin_3-Pad3)*%
X141530000Y-87862730D03*
%TO.P,J1,4,Pin_4*%
%TO.N,unconnected-(J1-Pin_4-Pad4)*%
X141530000Y-90402730D03*
%TO.P,J1,5,Pin_5*%
%TO.N,unconnected-(J1-Pin_5-Pad5)*%
X141530000Y-92942730D03*
%TO.P,J1,6,Pin_6*%
%TO.N,unconnected-(J1-Pin_6-Pad6)*%
X141530000Y-95482730D03*
%TO.P,J1,7,Pin_7*%
%TO.N,unconnected-(J1-Pin_7-Pad7)*%
X141530000Y-98022730D03*
%TO.P,J1,8,Pin_8*%
%TO.N,unconnected-(J1-Pin_8-Pad8)*%
X141530000Y-100562730D03*
%TO.P,J1,9,Pin_9*%
%TO.N,unconnected-(J1-Pin_9-Pad9)*%
X141530000Y-103102730D03*
%TO.P,J1,10,Pin_10*%
%TO.N,GND*%
X141530000Y-105642730D03*
%TO.P,J1,11,Pin_11*%
%TO.N,/VDD3V3*%
X141530000Y-108182730D03*
%TO.P,J1,12,Pin_12*%
%TO.N,unconnected-(J1-Pin_12-Pad12)*%
X141530000Y-110722730D03*
%TO.P,J1,13,Pin_13*%
%TO.N,unconnected-(J1-Pin_13-Pad13)*%
X141530000Y-113262730D03*
%TO.P,J1,14,Pin_14*%
%TO.N,GND*%
X141530000Y-115802730D03*
%TO.P,J1,15,Pin_15*%
%TO.N,unconnected-(J1-Pin_15-Pad15)*%
X141530000Y-118342730D03*
%TD*%
D20*
%TO.P,D7,1,K*%
%TO.N,Net-(D7-K)*%
X155719770Y-71260000D03*
D12*
%TO.P,D7,2,A*%
%TO.N,/VDD3V3*%
X158106589Y-72128731D03*
%TD*%
D21*
%TO.P,D3,1,K*%
%TO.N,Net-(D3-K)*%
X159007270Y-68760000D03*
%TO.P,D3,2,A*%
%TO.N,/VDD3V3*%
X158367270Y-68760000D03*
%TD*%
D15*
%TO.P,SW4,1,1*%
%TO.N,Net-(R17-Pad2)*%
X161215000Y-126832230D03*
X165365000Y-126832230D03*
%TO.P,SW4,2,2*%
%TO.N,GND*%
X161215000Y-128982230D03*
X165365000Y-128982230D03*
%TD*%
D22*
%TO.P,Q1,1,B*%
%TO.N,/D2*%
X152592500Y-127044730D03*
%TO.P,Q1,2,E*%
%TO.N,GND*%
X152592500Y-128944730D03*
%TO.P,Q1,3,C*%
%TO.N,Net-(Q1-C)*%
X154467500Y-127994730D03*
%TD*%
D10*
%TO.P,R19,1*%
%TO.N,Net-(D5-K)*%
X144718770Y-75260000D03*
%TO.P,R19,2*%
%TO.N,Net-(Q1-C)*%
X145738770Y-75260000D03*
%TD*%
D17*
%TO.P,R16,1*%
%TO.N,/D5*%
X147817692Y-127397230D03*
%TO.P,R16,2*%
%TO.N,Net-(R16-Pad2)*%
X147817692Y-128417230D03*
%TD*%
D10*
%TO.P,R18,1*%
%TO.N,Net-(D4-K)*%
X140591270Y-75260000D03*
%TO.P,R18,2*%
%TO.N,Net-(Q1-C)*%
X141611270Y-75260000D03*
%TD*%
D23*
%TO.N,GND*%
X159564000Y-93196730D02*
X164390000Y-98022730D01*
X159564000Y-76945770D02*
X159564000Y-93196730D01*
X140505256Y-128982230D02*
X144655256Y-128982230D01*
X166930000Y-127417230D02*
X166930000Y-118342730D01*
X163749770Y-72760000D02*
X159564000Y-76945770D01*
X138736000Y-118596730D02*
X138736000Y-127212974D01*
X166930000Y-118342730D02*
X164390000Y-115802730D01*
X138736000Y-127212974D02*
X140505256Y-128982230D01*
X152592500Y-128944730D02*
X152892499Y-129244729D01*
X165365000Y-128982230D02*
X161215000Y-128982230D01*
X152892499Y-129244729D02*
X160952501Y-129244729D01*
X160952501Y-129244729D02*
X161215000Y-128982230D01*
X138736000Y-118596730D02*
X141530000Y-115802730D01*
X165365000Y-128982230D02*
X166930000Y-127417230D01*
%TO.N,/VDD3V3*%
X158106589Y-70855939D02*
X158106589Y-72128731D01*
X166774820Y-71158000D02*
X167490770Y-71873950D01*
X159297856Y-68279000D02*
X158573730Y-68279000D01*
X143472604Y-69483985D02*
X146255466Y-69483985D01*
X157007270Y-69805459D02*
X157056109Y-69805459D01*
X157056109Y-69805459D02*
X158106589Y-70855939D01*
X147310105Y-70538624D02*
X148586120Y-69262609D01*
X158367270Y-68485460D02*
X158367270Y-68760000D01*
X167490770Y-83849720D02*
X164866760Y-86473730D01*
X158052729Y-68760000D02*
X157007270Y-69805459D01*
X163913240Y-86473730D02*
X163239000Y-87147970D01*
X158573730Y-68279000D02*
X158367270Y-68485460D01*
X152780105Y-70760000D02*
X153734646Y-69805459D01*
X163239000Y-87147970D02*
X163239000Y-94331730D01*
X161209770Y-72760000D02*
X162811770Y-71158000D01*
X158367270Y-68760000D02*
X158052729Y-68760000D01*
X162811770Y-71158000D02*
X166774820Y-71158000D01*
X151282714Y-69262609D02*
X152780105Y-70760000D01*
X148586120Y-69262609D02*
X151282714Y-69262609D01*
X146255466Y-69483985D02*
X147310105Y-70538624D01*
X153734646Y-69805459D02*
X157007270Y-69805459D01*
X164866760Y-86473730D02*
X163913240Y-86473730D01*
X163239000Y-94331730D02*
X164390000Y-95482730D01*
X141696589Y-71260000D02*
X143472604Y-69483985D01*
X161209770Y-72760000D02*
X161209770Y-70190914D01*
X167490770Y-71873950D02*
X167490770Y-83849720D01*
X161209770Y-70190914D02*
X159297856Y-68279000D01*
%TO.N,Net-(D3-K)*%
X159307589Y-69060319D02*
X159307589Y-73053681D01*
X159007270Y-68760000D02*
X159307589Y-69060319D01*
X159307589Y-73053681D02*
X157101270Y-75260000D01*
%TO.N,Net-(D4-K)*%
X139309770Y-72128731D02*
X140591270Y-73410231D01*
X140591270Y-73410231D02*
X140591270Y-75260000D01*
%TO.N,Net-(D5-K)*%
X144779770Y-75199000D02*
X144718770Y-75260000D01*
X144779770Y-70760000D02*
X144779770Y-75199000D01*
%TO.N,Net-(D6-K)*%
X150249770Y-70538624D02*
X150249770Y-73856500D01*
X150249770Y-73856500D02*
X148846270Y-75260000D01*
%TO.N,Net-(D7-K)*%
X152973770Y-74006000D02*
X152973770Y-75260000D01*
X155719770Y-71260000D02*
X152973770Y-74006000D01*
%TO.N,Net-(R17-Pad2)*%
X158052564Y-128417230D02*
X159630000Y-128417230D01*
X161215000Y-126832230D02*
X165365000Y-126832230D01*
X159630000Y-128417230D02*
X161215000Y-126832230D01*
%TO.N,Net-(R16-Pad2)*%
X144655256Y-126832230D02*
X140505256Y-126832230D01*
X146240256Y-128417230D02*
X144655256Y-126832230D01*
X147817692Y-128417230D02*
X146240256Y-128417230D01*
%TO.N,/D1*%
X164776040Y-74273730D02*
X166289770Y-72760000D01*
X162548770Y-72262529D02*
X163252299Y-71559000D01*
X163501000Y-74273730D02*
X160326000Y-77448730D01*
X165088770Y-71559000D02*
X166289770Y-72760000D01*
X160326000Y-81258730D02*
X164390000Y-85322730D01*
X158121270Y-75260000D02*
X160546241Y-75260000D01*
X163252299Y-71559000D02*
X165088770Y-71559000D01*
X160326000Y-77448730D02*
X160326000Y-81258730D01*
X163501000Y-74273730D02*
X164776040Y-74273730D01*
X162548770Y-73257471D02*
X162548770Y-72262529D01*
X160546241Y-75260000D02*
X162548770Y-73257471D01*
%TO.N,/D6*%
X158052564Y-109440166D02*
X164390000Y-103102730D01*
X158052564Y-109440166D02*
X158052564Y-127397230D01*
%TO.N,/D2*%
X165541000Y-101039490D02*
X165541000Y-89013730D01*
X152592500Y-113034470D02*
X163913240Y-101713730D01*
X152592500Y-113034470D02*
X152592500Y-127044730D01*
X163913240Y-101713730D02*
X164866760Y-101713730D01*
X164866760Y-101713730D02*
X165541000Y-101039490D01*
X165541000Y-89013730D02*
X164390000Y-87862730D01*
%TO.N,/D5*%
X164390000Y-100562730D02*
X163120000Y-100562730D01*
X147817692Y-115865038D02*
X147817692Y-127397230D01*
X163120000Y-100562730D02*
X147817692Y-115865038D01*
%TO.N,Net-(Q1-C)*%
X150044660Y-130113102D02*
X152163032Y-127994730D01*
X152163032Y-127994730D02*
X154467500Y-127994730D01*
X149866270Y-75260000D02*
X150487270Y-75881000D01*
X146359770Y-75881000D02*
X149245270Y-75881000D01*
X153372770Y-75881000D02*
X153993770Y-75260000D01*
X137974000Y-127902974D02*
X140184128Y-130113102D01*
X141531610Y-75260000D02*
X140910610Y-75881000D01*
X150487270Y-75881000D02*
X153372770Y-75881000D01*
X141611270Y-75260000D02*
X141531610Y-75260000D01*
X145738770Y-75260000D02*
X146359770Y-75881000D01*
X142232270Y-75881000D02*
X145117770Y-75881000D01*
X140184128Y-130113102D02*
X150044660Y-130113102D01*
X139795730Y-75881000D02*
X137974000Y-77702730D01*
X141611270Y-75260000D02*
X142232270Y-75881000D01*
X140910610Y-75881000D02*
X139795730Y-75881000D01*
X137974000Y-77702730D02*
X137974000Y-127902974D01*
X145117770Y-75881000D02*
X145738770Y-75260000D01*
X149245270Y-75881000D02*
X149866270Y-75260000D01*
%TD*%
M02*
