M48
; DRILL file {KiCad 9.0.2} date 2025-06-28T18:53:30+0300
; FORMAT={-:-/ absolute / metric / decimal}
; #@! TF.CreationDate,2025-06-28T18:53:30+03:00
; #@! TF.GenerationSoftware,Kicad,Pcbnew,9.0.2
; #@! TF.FileFunction,Plated,1,2,PTH
FMAT,2
METRIC
; #@! TA.AperFunction,Plated,PTH,ComponentDrill
T1C0.900
; #@! TA.AperFunction,Plated,PTH,ComponentDrill
T2C1.000
%
G90
G05
T1
X139.31Y-72.129
X141.697Y-71.26
X144.78Y-70.76
X147.31Y-70.539
X150.25Y-70.539
X152.78Y-70.76
X155.72Y-71.26
X158.107Y-72.129
X161.21Y-72.76
X163.75Y-72.76
X166.29Y-72.76
T2
X141.53Y-82.783
X141.53Y-85.323
X141.53Y-87.863
X141.53Y-90.403
X141.53Y-92.943
X141.53Y-95.483
X141.53Y-98.023
X141.53Y-100.563
X141.53Y-103.103
X141.53Y-105.643
X141.53Y-108.183
X141.53Y-110.723
X141.53Y-113.263
X141.53Y-115.803
X141.53Y-118.343
X164.39Y-82.783
X164.39Y-85.323
X164.39Y-87.863
X164.39Y-90.403
X164.39Y-92.943
X164.39Y-95.483
X164.39Y-98.023
X164.39Y-100.563
X164.39Y-103.103
X164.39Y-105.643
X164.39Y-108.183
X164.39Y-110.723
X164.39Y-113.263
X164.39Y-115.803
X164.39Y-118.343
M30
